<svg id="bus_x5F_ticket" enable-background="new 0 0 300 300" height="512" viewBox="0 0 300 300" width="512" xmlns="http://www.w3.org/2000/svg"><circle cx="162.943" cy="162" fill="#e5efef" r="86"/><path d="m169.841 169.038c-.611 0-1.232-.141-1.814-.438l-3.563-1.817c-1.968-1.004-2.75-3.413-1.746-5.381s3.413-2.75 5.381-1.746l3.563 1.817c1.968 1.004 2.75 3.413 1.746 5.381-.707 1.386-2.112 2.184-3.567 2.184zm-17.816-9.086c-.611 0-1.232-.141-1.814-.438l-3.563-1.817c-1.968-1.004-2.75-3.413-1.746-5.381s3.412-2.75 5.381-1.746l3.563 1.817c1.968 1.004 2.75 3.413 1.746 5.381-.708 1.386-2.111 2.184-3.567 2.184zm-17.855-9.013c-.56 0-1.128-.118-1.67-.368-1.165-.536-2.351-1.055-3.524-1.542-2.041-.846-3.009-3.187-2.163-5.227.847-2.04 3.188-3.01 5.228-2.163 1.269.526 2.549 1.086 3.806 1.665 2.007.924 2.885 3.3 1.96 5.307-.675 1.465-2.123 2.328-3.637 2.328zm-82.104-3.849c-1.858 0-3.524-1.302-3.914-3.194-.445-2.164.947-4.279 3.111-4.725l3.918-.807c2.157-.443 4.279.947 4.725 3.111.445 2.164-.947 4.279-3.111 4.725l-3.918.807c-.272.055-.544.083-.811.083zm63.256-2.731c-.314 0-.634-.038-.953-.115-1.241-.304-2.504-.587-3.754-.843-2.164-.443-3.56-2.556-3.117-4.721.443-2.164 2.556-3.556 4.721-3.117 1.349.276 2.712.582 4.051.909 2.146.525 3.46 2.69 2.936 4.836-.449 1.827-2.083 3.051-3.884 3.051zm-43.662-1.28c-1.894 0-3.576-1.35-3.93-3.279-.398-2.173 1.04-4.257 3.213-4.656 1.353-.248 2.731-.474 4.097-.67 2.203-.312 4.216 1.202 4.53 3.388.315 2.187-1.201 4.215-3.388 4.53-1.266.183-2.543.392-3.796.622-.244.043-.487.065-.726.065zm23.9-1.592c-.065 0-.131-.001-.196-.005-1.271-.062-2.564-.1-3.847-.113-2.209-.023-3.98-1.833-3.957-4.042s1.805-3.955 4.043-3.958c1.382.015 2.777.056 4.147.123 2.207.106 3.909 1.982 3.802 4.188-.103 2.141-1.872 3.807-3.992 3.807z" fill="#4c241d"/><path d="m193.99 189.842c-.993 0-1.986-.016-2.979-.047-2.208-.069-3.942-1.915-3.873-4.123.067-2.166 1.845-3.875 3.996-3.875.042 0 .084 0 .127.002.926.029 1.887.059 2.776.043.352 0 .7-.002 1.049-.006h.049c2.187 0 3.973 1.759 3.999 3.952.026 2.209-1.743 4.021-3.952 4.048-.397.004-.793.007-1.192.006zm17.042-1.568c-1.889 0-3.568-1.343-3.928-3.267-.404-2.172 1.027-4.261 3.199-4.666 1.248-.233 2.508-.496 3.745-.783 2.15-.499 4.301.842 4.799 2.994.499 2.152-.842 4.301-2.994 4.8-1.349.312-2.723.6-4.083.853-.248.047-.495.069-.738.069zm-35.762-.332c-.265 0-.533-.027-.804-.082-1.348-.275-2.716-.584-4.064-.92-2.144-.533-3.45-2.703-2.917-4.847s2.701-3.449 4.847-2.917c1.239.308 2.496.592 3.734.845 2.164.442 3.562 2.555 3.119 4.719-.387 1.896-2.054 3.202-3.915 3.202zm54.878-5.42c-1.56 0-3.041-.917-3.687-2.443-.86-2.035.092-4.382 2.127-5.242 1.167-.494 2.342-1.02 3.491-1.565 1.996-.947 4.381-.096 5.328 1.9.946 1.996.096 4.382-1.9 5.328-1.253.594-2.532 1.167-3.804 1.705-.507.215-1.036.317-1.555.317zm-73.91-.613c-.535 0-1.079-.108-1.601-.336-1.265-.553-2.539-1.143-3.786-1.753-1.983-.971-2.805-3.367-1.834-5.351s3.362-2.806 5.352-1.834c1.145.56 2.312 1.102 3.474 1.609 2.024.885 2.947 3.244 2.062 5.268-.657 1.501-2.126 2.397-3.667 2.397zm-17.336-9.898c-.812 0-1.631-.246-2.339-.757-1.123-.812-2.244-1.657-3.33-2.515-1.734-1.369-2.031-3.884-.662-5.618 1.367-1.734 3.883-2.031 5.617-.662.998.787 2.026 1.563 3.059 2.309 1.791 1.293 2.194 3.793.901 5.584-.782 1.082-2.006 1.659-3.246 1.659zm-14.837-13.356c-1.098 0-2.191-.45-2.981-1.333-.925-1.033-1.839-2.101-2.72-3.173-1.401-1.708-1.152-4.229.556-5.629 1.709-1.401 4.229-1.152 5.63.555.808.985 1.647 1.965 2.495 2.913 1.474 1.646 1.333 4.175-.313 5.648-.764.683-1.717 1.019-2.667 1.019zm-11.631-16.23c-1.396 0-2.752-.731-3.487-2.034-.679-1.203-1.343-2.438-1.972-3.672-1.004-1.968-.222-4.377 1.746-5.381 1.967-1.005 4.376-.223 5.381 1.746.578 1.133 1.188 2.268 1.812 3.373 1.086 1.924.407 4.364-1.517 5.45-.621.351-1.297.518-1.963.518zm-7.988-18.297c-1.648 0-3.191-1.026-3.771-2.669l-1.332-3.771c-.736-2.083.356-4.368 2.439-5.104 2.082-.737 4.367.356 5.104 2.439l1.332 3.771c.736 2.083-.356 4.368-2.439 5.104-.442.156-.891.23-1.333.23zm-6.66-18.859c-1.648 0-3.191-1.026-3.771-2.669l-1.332-3.771c-.736-2.083.356-4.368 2.439-5.104 2.082-.735 4.367.356 5.104 2.439l1.332 3.771c.736 2.083-.356 4.368-2.439 5.104-.442.157-.891.23-1.333.23z" fill="#4c241d"/><path d="m106.61 36.098h92.666v227.804h-92.666z" fill="#fff" transform="matrix(.829 .559 -.559 .829 110.054 -59.886)"/><path d="m127.642 274.335c-.77 0-1.547-.222-2.233-.685l-76.817-51.828c-.879-.593-1.487-1.512-1.689-2.553s.018-2.121.611-3l127.41-188.841c1.235-1.831 3.72-2.314 5.553-1.079l76.817 51.828c.879.593 1.487 1.512 1.689 2.553s-.018 2.121-.611 3l-127.411 188.842c-.772 1.145-2.034 1.763-3.319 1.763zm-71.261-56.907 70.186 47.354 122.937-182.21-70.186-47.354z" fill="#4c241d"/><path d="m233.501 110.214c-.77 0-1.547-.222-2.233-.685l-3.316-2.237c-1.831-1.235-2.314-3.722-1.079-5.553 1.236-1.832 3.72-2.315 5.554-1.079l3.316 2.237c1.831 1.235 2.314 3.722 1.079 5.553-.774 1.146-2.035 1.764-3.321 1.764zm-16.579-11.186c-.77 0-1.547-.222-2.232-.684l-3.316-2.237c-1.832-1.235-2.315-3.722-1.08-5.553s3.722-2.314 5.553-1.08l3.316 2.237c1.832 1.235 2.315 3.722 1.08 5.553-.773 1.146-2.036 1.764-3.321 1.764zm-16.579-11.186c-.77 0-1.547-.222-2.233-.685l-3.316-2.237c-1.831-1.235-2.314-3.722-1.079-5.553 1.237-1.831 3.721-2.314 5.554-1.079l3.316 2.237c1.831 1.235 2.314 3.722 1.079 5.553-.774 1.145-2.036 1.764-3.321 1.764zm-16.579-11.186c-.77 0-1.547-.222-2.233-.685l-3.316-2.237c-1.831-1.235-2.314-3.722-1.079-5.553 1.236-1.832 3.721-2.314 5.554-1.079l3.316 2.237c1.831 1.235 2.314 3.722 1.079 5.553-.774 1.145-2.036 1.764-3.321 1.764zm-16.58-11.186c-.77 0-1.548-.222-2.233-.685l-3.315-2.237c-1.831-1.236-2.314-3.722-1.078-5.553 1.235-1.831 3.723-2.314 5.553-1.079l3.315 2.238c1.831 1.235 2.314 3.722 1.078 5.553-.773 1.144-2.035 1.763-3.32 1.763z" fill="#4c241d"/><path d="m147.121 238.242c-.77 0-1.548-.222-2.233-.685l-3.315-2.238c-1.831-1.235-2.314-3.722-1.078-5.553 1.235-1.831 3.723-2.315 5.553-1.078l3.315 2.237c1.831 1.236 2.314 3.722 1.078 5.553-.774 1.145-2.035 1.764-3.32 1.764zm-16.58-11.186c-.77 0-1.548-.222-2.233-.685l-3.315-2.238c-1.831-1.235-2.314-3.722-1.078-5.553 1.235-1.831 3.722-2.315 5.553-1.078l3.315 2.237c1.831 1.235 2.314 3.722 1.078 5.553-.773 1.145-2.034 1.764-3.32 1.764zm-16.579-11.187c-.77 0-1.547-.222-2.233-.685l-3.316-2.237c-1.831-1.235-2.314-3.722-1.079-5.553 1.236-1.831 3.721-2.315 5.554-1.079l3.316 2.237c1.831 1.235 2.314 3.722 1.079 5.553-.774 1.146-2.035 1.764-3.321 1.764zm-16.579-11.186c-.77 0-1.547-.222-2.233-.685l-3.316-2.237c-1.831-1.235-2.314-3.722-1.079-5.553 1.236-1.831 3.721-2.315 5.554-1.079l3.316 2.237c1.831 1.235 2.314 3.722 1.079 5.553-.774 1.146-2.036 1.764-3.321 1.764zm-16.58-11.186c-.77 0-1.548-.222-2.233-.685l-3.315-2.237c-1.831-1.236-2.314-3.722-1.078-5.553 1.234-1.831 3.723-2.315 5.553-1.079l3.315 2.238c1.831 1.235 2.314 3.722 1.078 5.553-.773 1.145-2.035 1.763-3.32 1.763z" fill="#4c241d"/><path d="m140.352 199.726c-2.652-1.789-3.351-5.389-1.562-8.04l3.239-4.801 9.602 6.479-3.239 4.801c-1.789 2.651-5.388 3.35-8.04 1.561z" fill="#6b4f5b"/><path d="m143.571 204.72c-1.932 0-3.819-.573-5.456-1.678-4.476-3.02-5.659-9.118-2.641-13.594l3.24-4.801c1.235-1.831 3.72-2.315 5.553-1.079l9.602 6.479c1.831 1.236 2.314 3.722 1.078 5.553l-3.239 4.801c-1.462 2.168-3.682 3.637-6.249 4.136-.629.123-1.261.183-1.888.183zm-.463-12.282-1.002 1.485c-.552.819-.336 1.935.483 2.487.536.361 1.073.327 1.343.273.272-.053.783-.221 1.144-.757l1.003-1.485z" fill="#4c241d"/><path d="m123.069 135.775h42.472v54.055h-42.472z" fill="#e5efef" transform="matrix(.559 -.829 .829 .559 -71.363 191.37)"/><path d="m154.829 199.523c-.77 0-1.547-.222-2.233-.685l-44.81-30.233c-1.831-1.236-2.314-3.722-1.078-5.553l23.754-35.208c.593-.879 1.512-1.487 2.553-1.689 1.042-.201 2.12.018 3 .611l44.811 30.233c.879.593 1.487 1.512 1.689 2.553s-.018 2.121-.611 3l-23.755 35.208c-.774 1.145-2.035 1.763-3.32 1.763zm-39.253-35.312 38.178 25.758 19.281-28.576-38.179-25.758z" fill="#4c241d"/><path d="m111.546 180.291c-2.652-1.789-3.351-5.389-1.562-8.04l3.239-4.801 9.602 6.479-3.239 4.801c-1.789 2.65-5.389 3.35-8.04 1.561z" fill="#6b4f5b"/><path d="m114.77 185.278c-1.884 0-3.785-.541-5.461-1.67h-.001c-4.476-3.02-5.66-9.118-2.64-13.594l3.239-4.801c1.235-1.831 3.721-2.314 5.553-1.079l9.603 6.479c.879.593 1.487 1.512 1.689 2.553s-.018 2.121-.611 3l-3.239 4.801c-1.889 2.799-4.984 4.311-8.132 4.311zm-.988-8.304c.82.554 1.938.336 2.489-.483l1.002-1.485-2.971-2.004-1.003 1.485c-.551.819-.336 1.935.483 2.487z" fill="#4c241d"/><path d="m109.719 166.283h54.055v15.444h-54.055z" fill="#ffce56" transform="matrix(.829 .559 -.559 .829 120.71 -46.722)"/><path d="m154.832 199.523c-.792 0-1.571-.235-2.237-.684l-44.81-30.233c-1.831-1.236-2.314-3.722-1.078-5.553l8.638-12.803c.593-.879 1.512-1.487 2.553-1.689 1.042-.201 2.12.017 3 .611l44.81 30.233c1.831 1.236 2.314 3.722 1.078 5.553l-8.638 12.803c-.593.879-1.512 1.487-2.553 1.689-.253.048-.509.073-.763.073zm-39.256-35.312 38.178 25.758 4.164-6.171-38.178-25.758z" fill="#4c241d"/><path d="m179.931 158.323c4.028-5.97 2.454-14.076-3.517-18.104l-23.189-15.646c-5.97-4.028-14.076-2.454-18.104 3.517l-1.344 1.993 44.81 30.233z" fill="#ffce56"/><path d="m178.587 164.315c-.792 0-1.571-.235-2.237-.684l-44.811-30.233c-.879-.593-1.487-1.512-1.689-2.553s.018-2.121.611-3l1.345-1.993c2.546-3.773 6.408-6.329 10.876-7.197 4.469-.868 9.007.057 12.78 2.602l23.189 15.646c3.773 2.545 6.329 6.408 7.197 10.876s-.056 9.006-2.602 12.779l-1.344 1.993c-.593.88-1.512 1.488-2.553 1.69-.252.05-.508.074-.762.074zm-39.141-35.233 37.946 25.602c.746-1.677.961-3.539.604-5.379-.46-2.37-1.816-4.419-3.818-5.77l-23.189-15.646c-2.001-1.35-4.411-1.839-6.779-1.38-1.841.357-3.488 1.254-4.764 2.573z" fill="#4c241d"/><path d="m156.109 163.12c-.087 0-.174-.002-.261-.008l-29.572-1.904c-2.205-.142-3.877-2.044-3.735-4.249.143-2.205 2.07-3.881 4.249-3.735l29.572 1.904c2.205.142 3.877 2.044 3.735 4.249-.137 2.117-1.896 3.743-3.988 3.743z" fill="#4c241d"/><path d="m137.923 92.007h92.666v23.166h-92.666z" fill="#f53e28" transform="matrix(.829 .559 -.559 .829 89.453 -85.337)"/><path d="m216.186 143.106c-.792 0-1.571-.235-2.237-.684l-76.817-51.829c-.879-.593-1.487-1.512-1.689-2.553s.018-2.121.611-3l12.957-19.204c1.235-1.831 3.72-2.314 5.553-1.079l76.817 51.828c1.831 1.236 2.314 3.722 1.078 5.553l-12.957 19.205c-.593.879-1.512 1.487-2.553 1.689-.253.05-.509.074-.763.074zm-71.265-56.907 70.186 47.354 8.483-12.573-70.186-47.354z" fill="#4c241d"/><path d="m49.383 223.235h92.666v23.166h-92.666z" fill="#9dc1e4" transform="matrix(.829 .559 -.559 .829 147.706 -13.372)"/><g fill="#4c241d"><path d="m127.642 274.335c-.77 0-1.547-.222-2.233-.685l-76.817-51.828c-.879-.593-1.487-1.512-1.689-2.553s.018-2.121.611-3l12.957-19.204c1.235-1.831 3.72-2.315 5.553-1.079l76.817 51.828c.879.593 1.487 1.512 1.689 2.553s-.018 2.121-.611 3l-12.957 19.204c-.773 1.146-2.035 1.764-3.32 1.764zm-71.261-56.907 70.186 47.354 8.483-12.572-70.186-47.354z"/><path d="m64.943 60c-2.209 0-4-1.791-4-4v-12c0-2.209 1.791-4 4-4s4 1.791 4 4v12c0 2.209-1.791 4-4 4z"/><path d="m64.943 88c-2.209 0-4-1.791-4-4v-12c0-2.209 1.791-4 4-4s4 1.791 4 4v12c0 2.209-1.791 4-4 4z"/><path d="m56.943 68h-12c-2.209 0-4-1.791-4-4s1.791-4 4-4h12c2.209 0 4 1.791 4 4s-1.791 4-4 4z"/><path d="m84.943 68h-12c-2.209 0-4-1.791-4-4s1.791-4 4-4h12c2.209 0 4 1.791 4 4s-1.791 4-4 4z"/><path d="m212.943 262.44c-7.963 0-14.44-6.478-14.44-14.44s6.478-14.44 14.44-14.44 14.44 6.478 14.44 14.44-6.477 14.44-14.44 14.44zm0-20.881c-3.551 0-6.44 2.889-6.44 6.44s2.89 6.44 6.44 6.44 6.44-2.889 6.44-6.44-2.889-6.44-6.44-6.44z"/></g></svg>